HIERARCHY
ROOT pelvis
{
  OFFSET 0 100 0
  CHANNELS 6 Xposition Yposition Zposition Zrotation Xrotation Yrotation
  JOINT pelvis_right_femur
  {
    OFFSET -10.78128 -3.44521 -0.5502486
    CHANNELS 3 Zrotation Xrotation Yrotation
    JOINT right_femur_tibia
    {
      OFFSET -0.8047443 -44.0398 -0.1307829
      CHANNELS 3 Zrotation Xrotation Yrotation
      JOINT right_tibia_foot
      {
        OFFSET 3.006224 -47.83518 -5
        CHANNELS 3 Zrotation Xrotation Yrotation
        End Site
        {
          OFFSET 0 -5 15
        }
      }
    }
  }
  JOINT pelvis_left_femur
  {
    OFFSET 10.78128 -3.44521 -0.5502486
    CHANNELS 3 Zrotation Xrotation Yrotation
    JOINT left_femur_tibia
    {
      OFFSET 0.8047443 -44.0398 -0.1307829
      CHANNELS 3 Zrotation Xrotation Yrotation
      JOINT left_tibia_foot
      {
        OFFSET -4.370144 -48.10324 -4.275266
        CHANNELS 3 Zrotation Xrotation Yrotation
        End Site
        {
          OFFSET 0 -5 15
        }
      }
    }
  }
  JOINT pelvis_spine1
  {
    OFFSET 0 6.468898 -3.129235
    CHANNELS 3 Zrotation Xrotation Yrotation
    JOINT spine1
    {
      OFFSET 0 23.15396 4.99043
      CHANNELS 3 Zrotation Xrotation Yrotation
      JOINT spine2
      {
        OFFSET 0 20.79997 -5.064912
        CHANNELS 3 Zrotation Xrotation Yrotation
        JOINT neck
        {
          OFFSET 0 14.38658 9.616178
          CHANNELS 3 Zrotation Xrotation Yrotation
          End Site
          {
            OFFSET 0 20 0
          }
        }
      }
      JOINT right_manubrium
      {
        OFFSET -5.722621 16.35077 3.967754
        CHANNELS 3 Zrotation Xrotation Yrotation
        JOINT right_clavicle
        {
          OFFSET -13.16364 1.694482 -4.693211
          CHANNELS 3 Zrotation Xrotation Yrotation
          JOINT right_humerus
          {
            OFFSET -28.5034 -0.3100689 -2.792744
            CHANNELS 3 Zrotation Xrotation Yrotation
            JOINT right_radius
            {
              OFFSET -25.15693 0.02248979 -1.271978
              CHANNELS 3 Zrotation Xrotation Yrotation
              End Site
              {
                OFFSET -15 0 0
              }
            }
          }
        }
      }
      JOINT left_manubrium
      {
        OFFSET 5.722621 16.35077 3.967754
        CHANNELS 3 Zrotation Xrotation Yrotation
        JOINT left_clavicle
        {
          OFFSET 13.16364 1.694482 -4.693211
          CHANNELS 3 Zrotation Xrotation Yrotation
          JOINT left_humerus
          {
            OFFSET 29.39168 -1.063119 -2.237045
            CHANNELS 3 Zrotation Xrotation Yrotation
            JOINT left_radius
            {
              OFFSET 24.59957 -0.9528479 0.9047498
              CHANNELS 3 Zrotation Xrotation Yrotation
              End Site
              {
                OFFSET 15 -0 -0
              }
            }
          }
        }
      }
    }
  }
}
MOTION
Frames: 15
Frame Time: 0.0416666666667
0 103.5113 0 1.04246 -0.4274262 -0.2429165 3.363891 -15.99993 10.87551 -0 39.5515 -0 -6.928506 -17.34075 -3.355698 -7.338204 8.722727 -22.46282 -0 6.579376 -0 18.38526 -9.111504 29.50451 -4.051478 -3.787771 4.733883 3.320198 11.62246 -8.354171 1.208436 21.79963 6.008104 2.541137 -25.20158 8.830284 7.199923 -21.36083 12.30628 85.64934 39.57068 -17.86077 -0 0 15.4306 -6.713353 7.647312 6.528575 3.370482 -18.48894 -3.586492 -91.08251 21.54221 20.40455 0 0 -15.35505 14.10128 12.1802 -1.318738
0.3580336 104.1818 1.641894 0.8986249 -0.07142242 -0.4161818 3.485189 -17.60455 10.43851 -0 38.56808 -0 -7.697366 -15.47612 -3.168756 -7.195172 8.713981 -21.33729 -0 5.996841 -0 19.31025 -8.911732 28.80017 -4.046396 -3.489258 4.496361 3.547349 11.97428 -8.6788 1.070769 21.57522 5.952247 2.583716 -25.50417 8.491803 7.092819 -21.44093 12.44638 86.11537 39.60253 -18.25429 -0 0 14.5426 -6.933446 7.30262 7.125254 3.152132 -18.91563 -4.027747 -90.14046 20.62425 19.63032 0 0 -16.34302 15.04507 11.11328 -2.027296
0.6886352 104.68 3.145632 1.118725 -0.6595044 -0.5850526 3.148844 -16.91373 10.0208 -0 38.21861 -0 -6.212582 -17.72444 -3.29237 -7.291053 9.655019 -22.49901 -0 5.872116 -0 16.13353 -11.35578 28.80816 -4.067537 -3.65248 4.737695 3.080454 10.79995 -8.028538 1.316465 22.04252 6.186404 2.564375 -24.89406 9.164212 6.646478 -20.69681 11.94107 85.81921 38.12245 -18.10673 -0 0 15.32576 -6.931054 7.597598 5.7362 4.192307 -18.77542 -3.013732 -91.12429 22.13571 19.79191 0 0 -15.50969 13.68707 13.38821 -1.413235
0.9741618 105.0435 4.679662 1.10689 -0.81447 -0.7097877 3.08954 -17.59825 9.422781 -0 37.02102 -0 -5.617931 -17.95749 -3.447762 -7.195577 10.62035 -22.65708 -0 5.437271 -0 13.29969 -13.98683 27.96139 -4.106565 -3.548168 4.656334 2.952033 9.965144 -7.87281 1.380099 22.25835 6.418473 2.590685 -24.74144 9.474606 6.178207 -20.07816 11.61452 86.00685 36.76436 -18.65128 -0 0 15.25053 -7.088745 7.737493 5.080392 4.854577 -19.04707 -2.351958 -91.6441 24.02336 19.76139 0 0 -15.87019 11.65813 14.94188 0.4844284
1.233621 105.2958 6.311676 0.9964466 -0.7239731 -0.7759638 3.262653 -18.78072 8.86844 -0 35.72977 -0 -5.247848 -17.40153 -3.401014 -7.053643 11.3351 -22.56466 -0 5.038622 -0 10.86619 -16.34246 27.06998 -4.078469 -3.403095 4.584026 2.845735 9.341989 -7.776482 1.418278 22.2412 6.660661 2.750824 -24.68571 9.672416 5.91925 -19.55114 11.38824 86.03664 35.77479 -19.01141 -0 0 15.30646 -7.312894 7.905276 4.523713 5.60727 -19.42337 -1.71161 -92.07724 25.00666 19.71488 0 0 -16.01556 10.38029 16.04631 1.521687
1.466604 105.4319 8.128656 0.7890915 -0.3868111 -0.7606771 3.579028 -20.60554 8.276677 -0 33.85926 -0 -5.165496 -16.15153 -3.295123 -6.843834 12.02189 -22.13515 -0 4.618477 -0 8.718328 -18.55965 25.90925 -4.008571 -3.1715 4.43835 2.841972 8.857754 -7.811293 1.427153 22.08031 6.886308 2.944649 -24.82507 9.776707 5.674367 -19.08803 11.21489 86.16166 34.94435 -19.4882 -0 0 15.14178 -7.569078 8.045386 4.188171 6.275936 -19.89941 -1.190942 -92.28353 25.71875 19.5278 0 0 -16.47666 9.355634 16.75629 2.427927
1.675775 105.4544 10.19564 0.5012342 0.1393966 -0.6500156 4.025211 -22.83822 7.708216 -0 31.58374 -0 -5.267987 -14.44994 -3.123754 -6.586675 12.66111 -21.49988 -0 4.323819 -0 6.783842 -20.57741 24.58948 -3.880473 -2.894537 4.25864 2.898777 8.480499 -7.920613 1.426041 21.79956 7.099777 3.170598 -25.10149 9.829481 5.461712 -18.67941 11.07651 86.31142 34.27866 -19.99237 -0 0 14.88828 -7.842175 8.196407 3.989192 6.895753 -20.41213 -0.7443893 -92.35693 26.13277 19.27034 0 0 -17.06843 8.619978 17.17142 3.09922
1.861242 105.3688 12.57444 0.1330146 0.8123972 -0.4332339 4.584291 -25.36984 7.18222 -0 28.96028 -0 -5.53443 -12.41983 -2.911639 -6.277993 13.29087 -20.70297 -0 4.266304 -0 4.990273 -22.35826 23.10733 -3.680661 -2.577316 4.038343 3.006318 8.181334 -8.085879 1.423264 21.43435 7.298091 3.409352 -25.49679 9.852999 5.256599 -18.30751 10.95615 86.50554 33.75043 -20.53328 -0 0 14.52924 -8.122587 8.368742 3.909948 7.433906 -20.92149 -0.3856141 -92.31901 26.36972 18.95904 0 0 -17.79037 8.07564 17.34198 3.653415
2.024169 105.1905 15.31971 -0.3176303 1.583932 -0.1059896 5.257784 -28.04144 6.73858 -0 26.13888 -0 -5.937823 -10.18802 -2.667287 -5.915759 13.90326 -19.79964 -0 4.599225 -0 3.29245 -23.81585 21.49276 -3.388128 -2.23254 3.78306 3.14401 7.947348 -8.280966 1.424994 21.0089 7.480895 3.653617 -25.97559 9.862401 5.064358 -17.96259 10.84599 86.73015 33.36716 -21.07861 -0 0 14.10124 -8.405139 8.580555 3.923767 7.870768 -21.38351 -0.1219117 -92.21452 26.46627 18.63844 0 0 -18.5612 7.6842 17.30486 4.123269
2.166968 104.947 18.4812 -0.8517778 2.397018 0.3279739 6.046359 -30.67575 6.410784 -0 23.28654 -0 -6.45993 -7.890515 -2.403154 -5.494613 14.4818 -18.83342 -0 5.504967 -0 1.659255 -24.83288 19.76783 -2.980216 -1.870053 3.495966 3.291256 7.769358 -8.480823 1.434536 20.55233 7.645254 3.893174 -26.49644 9.866471 4.889927 -17.63189 10.74077 86.97996 33.13822 -21.59837 -0 0 13.62506 -8.687392 8.846338 4.009904 8.176405 -21.75497 0.02912072 -92.07324 26.45278 18.34063 0 0 -19.30265 7.414477 17.08563 4.537028
2.294323 104.6825 22.10148 -1.461606 3.177511 0.852265 6.940224 -33.03738 6.223235 -0 20.61354 -0 -7.080003 -5.697728 -2.135406 -5.012009 14.98429 -17.84519 -0 7.207433 -0 0.07396179 -25.25668 17.96328 -2.436805 -1.503036 3.185869 3.423752 7.643031 -8.658008 1.450873 20.10033 7.786496 4.116107 -27.00263 9.865772 4.743654 -17.3014 10.64004 87.24771 33.07362 -22.05525 -0 0 13.1222 -8.970776 9.17773 4.146795 8.319006 -21.99401 0.04898067 -91.92019 26.34171 18.0939 0 0 -19.91768 7.24684 16.70856 4.902508
2.41354 104.4623 26.21215 -2.121422 3.829047 1.431877 7.898588 -34.81866 6.171639 -0 18.36226 -0 -7.772328 -3.821655 -1.889011 -4.472851 15.33726 -16.86772 -0 9.971807 -0 -1.470019 -24.91109 16.117 -1.749122 -1.148256 2.869678 3.515327 7.567142 -8.783958 1.466901 19.70004 7.897048 4.306076 -27.42065 9.849591 4.636611 -16.9544 10.54919 87.52819 33.17057 -22.4116 -0 0 12.6034 -9.262226 9.579152 4.313114 8.267368 -22.06677 -0.07676745 -91.77033 26.13964 17.91483 0 0 -20.30349 7.161008 16.20329 5.218185
2.534251 104.3757 30.8264 -2.776895 4.233734 2.007312 8.825882 -35.63492 6.2017 -0 16.78336 -0 -8.502991 -2.507968 -1.699224 -3.897824 15.42051 -15.91957 -0 14.08588 -0 -2.968534 -23.625 14.27833 -0.9341116 -0.825943 2.578381 3.541263 7.544131 -8.831254 1.468155 19.41105 7.965306 4.441995 -27.66266 9.792284 4.578052 -16.57458 10.48177 87.81658 33.40128 -22.63376 -0 0 12.0643 -9.575271 10.04238 4.490194 7.998549 -21.95774 -0.3487996 -91.62754 25.8543 17.80575 0 0 -20.36549 7.126355 15.61009 5.480751
2.666618 104.5346 35.92752 -3.337133 4.26477 2.49398 9.560396 -35.05843 6.199153 -0 16.07046 -0 -9.230315 -1.996698 -1.607814 -3.332303 15.05106 -14.99591 -0 19.80421 -0 -4.401226 -21.29161 12.5129 -0.0539673 -0.5552086 2.363133 3.484847 7.580823 -8.777317 1.434835 19.30123 7.973673 4.500157 -27.63897 9.652545 4.570475 -16.15317 10.46051 88.10497 33.70251 -22.69683 -0 0 11.48187 -9.929607 10.54038 4.668245 7.508371 -21.68322 -0.7434645 -91.4826 25.50335 17.75145 0 0 -20.04554 7.095464 14.98109 5.69422
2.817282 105.0593 41.45403 -3.677928 3.816208 2.795154 9.906343 -32.7142 6.021741 -0 16.24726 -0 -9.909355 -2.440762 -1.648891 -2.84975 13.9726 -14.06453 -0 27.23138 -0 -5.718319 -17.96418 10.91209 0.7656365 -0.3435771 2.298583 3.344939 7.689085 -8.607401 1.35061 19.43341 7.896728 4.461805 -27.28223 9.380274 4.60437 -15.70201 10.51428 88.37265 33.97852 -22.5826 -0 0 10.82475 -10.34817 11.02433 4.855159 6.824928 -21.30178 -1.205652 -91.31569 25.11927 17.72128 0 0 -19.35764 7.00882 14.37506 5.875269
